General
Complete name                    : Its Complicated.mkv
Format                           : Matroska
File size                        : 1.39 GiB
Duration                         : 1h 55mn
Overall bit rate                 : 1 723 Kbps
Writing application              : HandBrake 0.9.4

Video
ID                               : 1
Format                           : AVC
Duration                         : 1h 55mn
Bit rate                         : 1 193 Kbps
Width                            : 720 pixels
Height                           : 552 pixels
Display aspect ratio             : 1.855
Stream size                      : 983 MiB (69%)
Writing library                  : x264 core 79


Audio #1

Format                           : AC-3
Duration                         : 1h 55mn
Bit rate                         : 384 Kbps
Channel(s)                       : 6 channels
Channel positions                : Front: L C R, Side: L R, LFE
Sampling rate                    : 48.0 KHz
Stream size                      : 317 MiB (22%)
Language                         : English

Audio #2

Mode extension                   : MS Stereo
Codec ID/Hint                    : MP3
Duration                         : 1h 55mn
Bit rate                         : 112 Kbps
Channel(s)                       : 2 channels
Sampling rate                    : 48.0 KHz
Stream size                      : 92.3 MiB (6%)
Writing library                  : LAME3.98
Language                         : French

Text #1
Language                         : English

Text #2
Language                         : French

Text #3
Language                         : Hungarian

Text #4
Language                         : Dutch

Text #5
Language                         : Arabic

Text #6
Language                         : Danish

Text #7
Language                         : Finnish

Text #8
Language                         : Icelandic

Text #9
Language                         : Norwegian

Text #10
Language                         : Swedish

Menu
00:00:00.000                     : Chapter 1
00:07:21.200                     : Chapter 2


